<svg width="45" height="53" viewBox="0 0 45 53" fill="none" xmlns="http://www.w3.org/2000/svg">
<ellipse cx="22.5" cy="26.5" rx="22.5" ry="26.5" fill="#9A2929"/>
<path d="M34.8203 26.0078V38.5C34.3984 39.125 33.7266 39.8281 32.8047 40.6094C31.8828 41.375 30.6094 42.0469 28.9844 42.625C27.375 43.1875 25.2969 43.4688 22.75 43.4688C20.6719 43.4688 18.7578 43.1094 17.0078 42.3906C15.2734 41.6562 13.7656 40.5938 12.4844 39.2031C11.2188 37.7969 10.2344 36.0938 9.53125 34.0938C8.84375 32.0781 8.5 29.7969 8.5 27.25V24.6016C8.5 22.0547 8.79688 19.7812 9.39062 17.7812C10 15.7813 10.8906 14.0859 12.0625 12.6953C13.2344 11.2891 14.6719 10.2266 16.375 9.50781C18.0781 8.77344 20.0312 8.40625 22.2344 8.40625C24.8438 8.40625 27.0234 8.85937 28.7734 9.76562C30.5391 10.6562 31.9141 11.8906 32.8984 13.4688C33.8984 15.0469 34.5391 16.8438 34.8203 18.8594H30.2969C30.0938 17.625 29.6875 16.5 29.0781 15.4844C28.4844 14.4688 27.6328 13.6562 26.5234 13.0469C25.4141 12.4219 23.9844 12.1094 22.2344 12.1094C20.6562 12.1094 19.2891 12.3984 18.1328 12.9766C16.9766 13.5547 16.0234 14.3828 15.2734 15.4609C14.5234 16.5391 13.9609 17.8438 13.5859 19.375C13.2266 20.9062 13.0469 22.6328 13.0469 24.5547V27.25C13.0469 29.2188 13.2734 30.9766 13.7266 32.5234C14.1953 34.0703 14.8594 35.3906 15.7188 36.4844C16.5781 37.5625 17.6016 38.3828 18.7891 38.9453C19.9922 39.5078 21.3203 39.7891 22.7734 39.7891C24.3828 39.7891 25.6875 39.6562 26.6875 39.3906C27.6875 39.1094 28.4688 38.7812 29.0312 38.4062C29.5938 38.0156 30.0234 37.6484 30.3203 37.3047V29.6641H22.4219V26.0078H34.8203Z" fill="#FCFCFC"/>
</svg>
